<mxfile host="app.diagrams.net" agent="Mozilla/5.0 (X11; Ubuntu; Linux x86_64; rv:138.0) Gecko/20100101 Firefox/138.0" version="27.0.9">
  <diagram name="Page-1" id="DH_X-rnCKZaQGsXs9TPI">
    <mxGraphModel dx="1678" dy="2041" grid="1" gridSize="10" guides="1" tooltips="1" connect="1" arrows="1" fold="1" page="1" pageScale="1" pageWidth="850" pageHeight="1100" math="0" shadow="0">
      <root>
        <mxCell id="0" />
        <mxCell id="1" parent="0" />
        <mxCell id="rcMQEodUZymsozP1pVCX-2" style="edgeStyle=orthogonalEdgeStyle;rounded=0;orthogonalLoop=1;jettySize=auto;html=1;" parent="1" source="rcMQEodUZymsozP1pVCX-1" target="rcMQEodUZymsozP1pVCX-3" edge="1">
          <mxGeometry relative="1" as="geometry">
            <mxPoint x="420" y="-62" as="targetPoint" />
          </mxGeometry>
        </mxCell>
        <mxCell id="rcMQEodUZymsozP1pVCX-24" value="Tick" style="edgeLabel;html=1;align=center;verticalAlign=middle;resizable=0;points=[];" parent="rcMQEodUZymsozP1pVCX-2" vertex="1" connectable="0">
          <mxGeometry x="-0.0957" y="1" relative="1" as="geometry">
            <mxPoint as="offset" />
          </mxGeometry>
        </mxCell>
        <mxCell id="rcMQEodUZymsozP1pVCX-1" value="IDLE" style="strokeWidth=2;html=1;shape=mxgraph.flowchart.start_2;whiteSpace=wrap;" parent="1" vertex="1">
          <mxGeometry x="190" y="-112" width="100" height="100" as="geometry" />
        </mxCell>
        <mxCell id="rcMQEodUZymsozP1pVCX-4" style="edgeStyle=orthogonalEdgeStyle;rounded=0;orthogonalLoop=1;jettySize=auto;html=1;" parent="1" source="k5t2HUq_UFmk_LwSATtQ-1" target="rcMQEodUZymsozP1pVCX-5" edge="1">
          <mxGeometry relative="1" as="geometry">
            <mxPoint x="331" y="-62" as="targetPoint" />
          </mxGeometry>
        </mxCell>
        <mxCell id="rcMQEodUZymsozP1pVCX-17" value="Interaction" style="edgeLabel;html=1;align=center;verticalAlign=middle;resizable=0;points=[];" parent="rcMQEodUZymsozP1pVCX-4" vertex="1" connectable="0">
          <mxGeometry x="0.0184" relative="1" as="geometry">
            <mxPoint x="-6" as="offset" />
          </mxGeometry>
        </mxCell>
        <mxCell id="rcMQEodUZymsozP1pVCX-3" value="Wait For Interact" style="rounded=1;whiteSpace=wrap;html=1;absoluteArcSize=1;arcSize=14;strokeWidth=2;" parent="1" vertex="1">
          <mxGeometry x="370" y="-112" width="100" height="100" as="geometry" />
        </mxCell>
        <mxCell id="rcMQEodUZymsozP1pVCX-6" style="edgeStyle=orthogonalEdgeStyle;rounded=0;orthogonalLoop=1;jettySize=auto;html=1;entryX=1;entryY=0.5;entryDx=0;entryDy=0;exitX=0.5;exitY=1;exitDx=0;exitDy=0;" parent="1" source="k5t2HUq_UFmk_LwSATtQ-10" target="rcMQEodUZymsozP1pVCX-11" edge="1">
          <mxGeometry relative="1" as="geometry">
            <mxPoint x="400" y="425" as="targetPoint" />
            <Array as="points">
              <mxPoint x="1130" y="290" />
            </Array>
            <mxPoint x="1160" y="280" as="sourcePoint" />
          </mxGeometry>
        </mxCell>
        <mxCell id="rcMQEodUZymsozP1pVCX-19" value="&lt;font style=&quot;font-size: 13px;&quot;&gt;No&lt;/font&gt;" style="edgeLabel;html=1;align=center;verticalAlign=middle;resizable=0;points=[];" parent="rcMQEodUZymsozP1pVCX-6" vertex="1" connectable="0">
          <mxGeometry x="-0.0904" y="-1" relative="1" as="geometry">
            <mxPoint x="298" y="-9" as="offset" />
          </mxGeometry>
        </mxCell>
        <mxCell id="JU1BLYYvJ1JnS1u07buZ-13" style="edgeStyle=orthogonalEdgeStyle;rounded=0;orthogonalLoop=1;jettySize=auto;html=1;entryX=1;entryY=0.5;entryDx=0;entryDy=0;exitX=0.25;exitY=1;exitDx=0;exitDy=0;" parent="1" source="rcMQEodUZymsozP1pVCX-5" target="rcMQEodUZymsozP1pVCX-9" edge="1">
          <mxGeometry relative="1" as="geometry">
            <mxPoint x="680" y="97" as="targetPoint" />
            <Array as="points">
              <mxPoint x="955" y="100" />
            </Array>
            <mxPoint x="960" y="200" as="sourcePoint" />
          </mxGeometry>
        </mxCell>
        <mxCell id="k5t2HUq_UFmk_LwSATtQ-14" value="similar&lt;br&gt;interaction&lt;br&gt;detected" style="edgeLabel;html=1;align=center;verticalAlign=middle;resizable=0;points=[];" vertex="1" connectable="0" parent="JU1BLYYvJ1JnS1u07buZ-13">
          <mxGeometry x="-0.7724" relative="1" as="geometry">
            <mxPoint as="offset" />
          </mxGeometry>
        </mxCell>
        <mxCell id="k5t2HUq_UFmk_LwSATtQ-11" value="" style="edgeStyle=orthogonalEdgeStyle;rounded=0;orthogonalLoop=1;jettySize=auto;html=1;exitX=0.75;exitY=1;exitDx=0;exitDy=0;" edge="1" parent="1" source="rcMQEodUZymsozP1pVCX-5" target="k5t2HUq_UFmk_LwSATtQ-10">
          <mxGeometry relative="1" as="geometry" />
        </mxCell>
        <mxCell id="k5t2HUq_UFmk_LwSATtQ-12" value="no similar&lt;br&gt;&lt;div&gt;interaction&lt;/div&gt;&lt;div&gt;detected&lt;/div&gt;" style="edgeLabel;html=1;align=center;verticalAlign=middle;resizable=0;points=[];" vertex="1" connectable="0" parent="k5t2HUq_UFmk_LwSATtQ-11">
          <mxGeometry x="-0.2667" y="-4" relative="1" as="geometry">
            <mxPoint x="22" y="-4" as="offset" />
          </mxGeometry>
        </mxCell>
        <mxCell id="rcMQEodUZymsozP1pVCX-5" value="Check Duplicate" style="rounded=1;whiteSpace=wrap;html=1;absoluteArcSize=1;arcSize=14;strokeWidth=2;" parent="1" vertex="1">
          <mxGeometry x="930" y="-112" width="100" height="100" as="geometry" />
        </mxCell>
        <mxCell id="rcMQEodUZymsozP1pVCX-9" value="Shorten and Speak" style="rounded=1;whiteSpace=wrap;html=1;absoluteArcSize=1;arcSize=14;strokeWidth=2;" parent="1" vertex="1">
          <mxGeometry x="510" y="50" width="100" height="100" as="geometry" />
        </mxCell>
        <mxCell id="rcMQEodUZymsozP1pVCX-11" value="Answer and Speak" style="rounded=1;whiteSpace=wrap;html=1;absoluteArcSize=1;arcSize=14;strokeWidth=2;" parent="1" vertex="1">
          <mxGeometry x="344" y="240" width="100" height="100" as="geometry" />
        </mxCell>
        <mxCell id="rcMQEodUZymsozP1pVCX-13" style="edgeStyle=orthogonalEdgeStyle;rounded=0;orthogonalLoop=1;jettySize=auto;html=1;entryX=0.75;entryY=1;entryDx=0;entryDy=0;exitX=0;exitY=0.5;exitDx=0;exitDy=0;" parent="1" source="rcMQEodUZymsozP1pVCX-9" target="rcMQEodUZymsozP1pVCX-3" edge="1">
          <mxGeometry relative="1" as="geometry">
            <mxPoint x="445" y="187" as="targetPoint" />
            <Array as="points">
              <mxPoint x="445" y="100" />
            </Array>
          </mxGeometry>
        </mxCell>
        <mxCell id="vWXhiqJb9C7T8JaeQtmg-1" value="Shortened&lt;br&gt;Reply" style="edgeLabel;html=1;align=center;verticalAlign=middle;resizable=0;points=[];" parent="rcMQEodUZymsozP1pVCX-13" vertex="1" connectable="0">
          <mxGeometry x="-0.2147" y="-2" relative="1" as="geometry">
            <mxPoint x="3" y="-46" as="offset" />
          </mxGeometry>
        </mxCell>
        <mxCell id="JU1BLYYvJ1JnS1u07buZ-8" value="" style="edgeStyle=orthogonalEdgeStyle;rounded=0;orthogonalLoop=1;jettySize=auto;html=1;entryX=0.25;entryY=1;entryDx=0;entryDy=0;" parent="1" source="rcMQEodUZymsozP1pVCX-11" target="rcMQEodUZymsozP1pVCX-3" edge="1">
          <mxGeometry relative="1" as="geometry">
            <mxPoint x="377" y="395" as="sourcePoint" />
            <mxPoint x="377" y="188" as="targetPoint" />
          </mxGeometry>
        </mxCell>
        <mxCell id="vWXhiqJb9C7T8JaeQtmg-2" value="Generated&lt;br&gt;Reply" style="edgeLabel;html=1;align=center;verticalAlign=middle;resizable=0;points=[];" parent="JU1BLYYvJ1JnS1u07buZ-8" vertex="1" connectable="0">
          <mxGeometry x="0.3814" y="1" relative="1" as="geometry">
            <mxPoint x="-4" as="offset" />
          </mxGeometry>
        </mxCell>
        <mxCell id="-C1WJvD8xXK_lExzU-o8-3" value="" style="edgeStyle=orthogonalEdgeStyle;rounded=0;orthogonalLoop=1;jettySize=auto;html=1;exitX=1;exitY=0.5;exitDx=0;exitDy=0;" parent="1" source="rcMQEodUZymsozP1pVCX-3" target="-C1WJvD8xXK_lExzU-o8-2" edge="1">
          <mxGeometry relative="1" as="geometry">
            <mxPoint x="941" y="-62" as="targetPoint" />
            <mxPoint x="670" y="-62" as="sourcePoint" />
          </mxGeometry>
        </mxCell>
        <mxCell id="-C1WJvD8xXK_lExzU-o8-5" value="&lt;div&gt;Interaction&lt;/div&gt;" style="edgeLabel;html=1;align=center;verticalAlign=middle;resizable=0;points=[];" parent="-C1WJvD8xXK_lExzU-o8-3" vertex="1" connectable="0">
          <mxGeometry x="-0.225" y="-3" relative="1" as="geometry">
            <mxPoint y="-3" as="offset" />
          </mxGeometry>
        </mxCell>
        <mxCell id="-C1WJvD8xXK_lExzU-o8-6" style="edgeStyle=orthogonalEdgeStyle;rounded=0;orthogonalLoop=1;jettySize=auto;html=1;exitX=0;exitY=0.5;exitDx=0;exitDy=0;entryX=0.5;entryY=1;entryDx=0;entryDy=0;" parent="1" source="k5t2HUq_UFmk_LwSATtQ-22" target="rcMQEodUZymsozP1pVCX-3" edge="1">
          <mxGeometry relative="1" as="geometry">
            <mxPoint x="910" y="160" as="sourcePoint" />
            <Array as="points" />
            <mxPoint x="420" y="-10" as="targetPoint" />
          </mxGeometry>
        </mxCell>
        <mxCell id="-C1WJvD8xXK_lExzU-o8-2" value="Manage Context" style="rounded=1;whiteSpace=wrap;html=1;absoluteArcSize=1;arcSize=14;strokeWidth=2;" parent="1" vertex="1">
          <mxGeometry x="550" y="-112" width="100" height="100" as="geometry" />
        </mxCell>
        <mxCell id="y0_FkYAD9iZIGIri1l-t-1" style="edgeStyle=orthogonalEdgeStyle;rounded=0;orthogonalLoop=1;jettySize=auto;html=1;entryX=0.5;entryY=0;entryDx=0;entryDy=0;entryPerimeter=0;" parent="1" source="-C1WJvD8xXK_lExzU-o8-2" target="rcMQEodUZymsozP1pVCX-1" edge="1">
          <mxGeometry relative="1" as="geometry">
            <Array as="points">
              <mxPoint x="600" y="-170" />
              <mxPoint x="240" y="-170" />
            </Array>
          </mxGeometry>
        </mxCell>
        <mxCell id="y0_FkYAD9iZIGIri1l-t-2" value="&lt;div&gt;Continue the tour?&lt;/div&gt;" style="edgeLabel;html=1;align=center;verticalAlign=middle;resizable=0;points=[];" parent="y0_FkYAD9iZIGIri1l-t-1" vertex="1" connectable="0">
          <mxGeometry x="-0.0165" relative="1" as="geometry">
            <mxPoint as="offset" />
          </mxGeometry>
        </mxCell>
        <mxCell id="k5t2HUq_UFmk_LwSATtQ-2" value="" style="edgeStyle=orthogonalEdgeStyle;rounded=0;orthogonalLoop=1;jettySize=auto;html=1;" edge="1" parent="1" source="-C1WJvD8xXK_lExzU-o8-2" target="k5t2HUq_UFmk_LwSATtQ-1">
          <mxGeometry relative="1" as="geometry">
            <mxPoint x="803" y="-62" as="targetPoint" />
            <mxPoint x="650" y="-62" as="sourcePoint" />
          </mxGeometry>
        </mxCell>
        <mxCell id="k5t2HUq_UFmk_LwSATtQ-4" value="Language" style="edgeLabel;html=1;align=center;verticalAlign=middle;resizable=0;points=[];" vertex="1" connectable="0" parent="k5t2HUq_UFmk_LwSATtQ-2">
          <mxGeometry x="-0.15" y="2" relative="1" as="geometry">
            <mxPoint as="offset" />
          </mxGeometry>
        </mxCell>
        <mxCell id="k5t2HUq_UFmk_LwSATtQ-1" value="Set Language" style="rounded=1;whiteSpace=wrap;html=1;absoluteArcSize=1;arcSize=14;strokeWidth=2;" vertex="1" parent="1">
          <mxGeometry x="730" y="-112" width="100" height="100" as="geometry" />
        </mxCell>
        <mxCell id="k5t2HUq_UFmk_LwSATtQ-10" value="is interaction related to function or description?" style="rhombus;whiteSpace=wrap;html=1;rounded=1;absoluteArcSize=1;arcSize=14;strokeWidth=2;" vertex="1" parent="1">
          <mxGeometry x="1050" y="95" width="160" height="170" as="geometry" />
        </mxCell>
        <mxCell id="k5t2HUq_UFmk_LwSATtQ-23" value="" style="edgeStyle=orthogonalEdgeStyle;rounded=0;orthogonalLoop=1;jettySize=auto;html=1;exitX=0;exitY=0.5;exitDx=0;exitDy=0;entryX=1;entryY=0.5;entryDx=0;entryDy=0;" edge="1" parent="1" source="k5t2HUq_UFmk_LwSATtQ-10" target="k5t2HUq_UFmk_LwSATtQ-22">
          <mxGeometry relative="1" as="geometry">
            <mxPoint x="1050" y="162" as="sourcePoint" />
            <Array as="points">
              <mxPoint x="1050" y="180" />
            </Array>
            <mxPoint x="420" y="-12" as="targetPoint" />
          </mxGeometry>
        </mxCell>
        <mxCell id="k5t2HUq_UFmk_LwSATtQ-24" value="&lt;div&gt;Predefined&lt;/div&gt;&lt;div&gt;Reply&lt;/div&gt;" style="edgeLabel;html=1;align=center;verticalAlign=middle;resizable=0;points=[];" vertex="1" connectable="0" parent="k5t2HUq_UFmk_LwSATtQ-23">
          <mxGeometry x="-0.0396" y="2" relative="1" as="geometry">
            <mxPoint x="-404" y="-2" as="offset" />
          </mxGeometry>
        </mxCell>
        <mxCell id="k5t2HUq_UFmk_LwSATtQ-25" value="Yes" style="edgeLabel;html=1;align=center;verticalAlign=middle;resizable=0;points=[];fontSize=13;" vertex="1" connectable="0" parent="k5t2HUq_UFmk_LwSATtQ-23">
          <mxGeometry x="-0.8901" relative="1" as="geometry">
            <mxPoint x="-9" as="offset" />
          </mxGeometry>
        </mxCell>
        <mxCell id="k5t2HUq_UFmk_LwSATtQ-22" value="&lt;div&gt;Interpret&lt;/div&gt;&lt;div&gt;Command&lt;/div&gt;" style="rounded=1;whiteSpace=wrap;html=1;absoluteArcSize=1;arcSize=14;strokeWidth=2;" vertex="1" parent="1">
          <mxGeometry x="750" y="130" width="100" height="100" as="geometry" />
        </mxCell>
      </root>
    </mxGraphModel>
  </diagram>
</mxfile>
